<svg xmlns="http://www.w3.org/2000/svg" width="20" height="20" viewBox="0 0 20 20">
  <path fill="#FFF" d="M8.98989899,0 C13.9548831,0 17.979798,4.02491488 17.979798,8.98989899 C17.979798,11.1452807 17.2212739,13.1234997 15.9566043,14.6721773 L19.7337334,18.4480847 C20.0887555,18.8031068 20.0887555,19.3787114 19.7337334,19.7337334 C19.4060207,20.0614461 18.8903561,20.0866548 18.5337278,19.8093594 L18.4480847,19.7337334 L14.6721773,15.9566043 C13.1234997,17.2212739 11.1452807,17.979798 8.98989899,17.979798 C4.02491488,17.979798 0,13.9548831 0,8.98989899 C0,4.02491488 4.02491488,0 8.98989899,0 Z M8.98989899,1.81818182 C5.02906897,1.81818182 1.81818182,5.02906897 1.81818182,8.98989899 C1.81818182,12.950729 5.02906897,16.1616162 8.98989899,16.1616162 C10.9269219,16.1616162 12.684585,15.3936852 13.9750506,14.145661 C13.9991927,14.1128416 14.0255145,14.0827762 14.0541454,14.0541454 L14.1479208,13.9722693 L14.1479208,13.9722693 L14.2938068,13.8171957 C15.4541779,12.5429982 16.1616162,10.8490641 16.1616162,8.98989899 C16.1616162,5.02906897 12.950729,1.81818182 8.98989899,1.81818182 Z"/>
</svg>
